<?xml version="1.0" encoding="utf-8"?>
<!-- Generator: Adobe Illustrator 27.5.0, SVG Export Plug-In . SVG Version: 6.00 Build 0)  -->
<svg version="1.1" xmlns="http://www.w3.org/2000/svg" xmlns:xlink="http://www.w3.org/1999/xlink" x="0px" y="0px"
	 viewBox="0 0 500 500" style="enable-background:new 0 0 500 500;" xml:space="preserve">
<g id="BACKGROUND">
	<rect id="XMLID_1_" style="fill:#7ED9E8;" width="500" height="500"/>
</g>
<g id="OBJECTS">
	<g>
		<g>
			<path style="fill:#A1ACAD;" d="M225.587,90.843c0.9,0.92,1.58,2.24,1.2,3.47c-0.35,1.12-1.51,1.85-2.68,1.96
				c-1.17,0.12-2.33-0.27-3.38-0.79c-5.46-2.69-8.7-9.18-7.78-15.17l8.81,0.28c-1.19,2.47-0.99,5.69,0.91,7.72
				C223.547,89.253,224.687,89.923,225.587,90.843z"/>
			<path style="fill:#A1ACAD;" d="M241.237,81.213l-7.51-0.24c-1.56-3.32-6.18-4.98-9.44-3.15c-1.13,0.63-1.98,1.62-2.53,2.77
				l-8.81-0.28c0.09-0.54,0.2-1.09,0.36-1.62c1.85-6.38,8.63-10.93,15.23-10.23C234.997,69.143,240.557,74.773,241.237,81.213z"/>
			<path style="fill:#A1ACAD;" d="M272.677,82.213l-7.57-0.24c-1.66-3.2-6.16-4.77-9.35-2.97c-1.07,0.6-1.9,1.52-2.46,2.6
				l-8.84-0.28c0.07-0.49,0.18-0.97,0.31-1.44c1.85-6.39,8.63-10.94,15.23-10.24C266.397,70.323,271.907,75.863,272.677,82.213z"/>
			<path style="fill:#A1ACAD;" d="M257.047,92.023c0.9,0.92,1.58,2.25,1.2,3.48c-0.35,1.12-1.51,1.84-2.68,1.96
				c-1.17,0.11-2.33-0.28-3.38-0.8c-5.52-2.71-8.76-9.32-7.73-15.34l8.84,0.28c-1.28,2.49-1.11,5.82,0.84,7.89
				C255.017,90.433,256.147,91.103,257.047,92.023z"/>
			<path style="fill:#A1ACAD;" d="M324.567,93.793c0.9,0.92,1.58,2.25,1.2,3.48c-0.35,1.12-1.52,1.84-2.68,1.96
				c-1.17,0.11-2.33-0.28-3.38-0.8c-5.4-2.66-8.63-9.04-7.81-14.97l8.74,0.28c-1.09,2.44-0.84,5.55,1.01,7.53
				C322.527,92.203,323.667,92.873,324.567,93.793z"/>
			<path style="fill:#A1ACAD;" d="M293.107,92.613c0.9,0.92,1.57,2.25,1.19,3.48c-0.34,1.12-1.51,1.84-2.68,1.96
				c-1.16,0.11-2.32-0.28-3.38-0.8c-5.35-2.63-8.55-8.91-7.82-14.79l8.69,0.28c-1.01,2.41-0.73,5.41,1.08,7.34
				C291.067,91.023,292.197,91.693,293.107,92.613z"/>
			<path style="fill:#A1ACAD;" d="M308.777,83.363l-7.36-0.23c-1.38-3.58-6.23-5.43-9.61-3.54c-1.25,0.7-2.17,1.84-2.7,3.15
				l-8.69-0.28c0.08-0.67,0.22-1.34,0.41-1.99c1.84-6.38,8.62-10.94,15.23-10.24C302.627,70.933,308.277,76.773,308.777,83.363z"/>
			<path style="fill:#A1ACAD;" d="M340.237,84.363l-7.44-0.23c-1.46-3.46-6.2-5.22-9.53-3.36c-1.19,0.67-2.08,1.73-2.63,2.97
				l-8.74-0.28c0.09-0.61,0.22-1.21,0.39-1.81c1.84-6.38,8.62-10.94,15.23-10.24C334.037,72.113,339.647,77.853,340.237,84.363z"/>
			<path style="fill:#A1ACAD;" d="M357.847,94.893c0.9,0.92,1.58,2.24,1.2,3.47c-0.35,1.12-1.51,1.85-2.68,1.96
				c-1.17,0.12-2.33-0.27-3.38-0.79c-5.41-2.66-8.63-9.07-7.79-15.01l8.75,0.28c-1.11,2.45-0.88,5.58,0.98,7.56
				C355.817,93.303,356.947,93.973,357.847,94.893z"/>
			<path style="fill:#A1ACAD;" d="M373.507,85.423l-7.44-0.23c-1.49-3.43-6.2-5.19-9.52-3.32c-1.18,0.66-2.06,1.71-2.6,2.93
				l-8.75-0.28c0.08-0.6,0.2-1.19,0.37-1.78c1.85-6.38,8.63-10.93,15.23-10.23C367.307,73.203,372.907,78.913,373.507,85.423z"/>
			<polygon style="fill:#183C60;" points="393.157,241.333 393.157,86.053 400.177,90.033 400.177,418.483 393.157,424.213 			"/>
			<path style="fill:#FCFAEB;" d="M193.127,315.755c0.08,4.2-0.2,8.41-0.83,12.56c-1.16,7.7-3.51,15.22-6.96,22.2
				c-5.93-9.7-9.96-20.56-11.81-31.78c0.04-0.07,0.07-0.13,0.1-0.2c6.35-1.65,12.72-3.31,19.07-4.96l0.38,0.41
				c0,0.08,0.01,0.16,0.01,0.24C193.107,314.735,193.117,315.245,193.127,315.755z"/>
			<path style="fill:#FCFAEB;" d="M393.157,262.185v162.03l-193.16-23.92v-44.28c0,0,0.01,0,0.02,0.01
				c1.5,0.75,99.03,49.44,157.23,48.25C357.247,404.275,389.267,320.625,393.157,262.185z"/>
			<path style="fill:#FFFEFA;" d="M393.157,86.053v155.28c-2.63,49.79-23.1,102.24-56.57,137.91
				c-46.36-0.66-92.61-8.55-136.59-23.23c-4.83-1.6-9.63-3.3-14.4-5.07c-0.09-0.14-0.18-0.28-0.26-0.43
				c5.57-11.28,8.27-23.96,7.74-36.53l-0.38-0.41c-6.35,1.65-12.72,3.31-19.07,4.96c19.45-38.88,24.97-81.29,26.37-128.04V79.903
				l12.95,0.41c-0.92,5.99,2.32,12.48,7.78,15.17c1.05,0.52,2.21,0.91,3.38,0.79c1.17-0.11,2.33-0.84,2.68-1.96
				c0.38-1.23-0.3-2.55-1.2-3.47c-0.9-0.92-2.04-1.59-2.92-2.53c-1.9-2.03-2.1-5.25-0.91-7.72l11.97,0.38l7.51,0.24l3.22,0.11
				c-1.03,6.02,2.21,12.63,7.73,15.34c1.05,0.52,2.21,0.91,3.38,0.8c1.17-0.12,2.33-0.84,2.68-1.96c0.38-1.23-0.3-2.56-1.2-3.48
				s-2.03-1.59-2.91-2.53c-1.95-2.07-2.12-5.4-0.84-7.89l11.81,0.37l7.57,0.24l7.74,0.25c-0.73,5.88,2.47,12.16,7.82,14.79
				c1.06,0.52,2.22,0.91,3.38,0.8c1.17-0.12,2.34-0.84,2.68-1.96c0.38-1.23-0.29-2.56-1.19-3.48c-0.91-0.92-2.04-1.59-2.92-2.53
				c-1.81-1.93-2.09-4.93-1.08-7.34l12.31,0.39l7.36,0.23l3.12,0.1c-0.82,5.93,2.41,12.31,7.81,14.97c1.05,0.52,2.21,0.91,3.38,0.8
				c1.16-0.12,2.33-0.84,2.68-1.96c0.38-1.23-0.3-2.56-1.2-3.48c-0.9-0.92-2.04-1.59-2.92-2.52c-1.85-1.98-2.1-5.09-1.01-7.53
				l12.16,0.39l7.44,0.23l4.96,0.16c-0.84,5.94,2.38,12.35,7.79,15.01c1.05,0.52,2.21,0.91,3.38,0.79c1.17-0.11,2.33-0.84,2.68-1.96
				c0.38-1.23-0.3-2.55-1.2-3.47c-0.9-0.92-2.03-1.59-2.92-2.53c-1.86-1.98-2.09-5.11-0.98-7.56l12.12,0.39l7.44,0.23
				L393.157,86.053z"/>
			<path style="fill:#EAE6D6;" d="M393.157,241.335v20.85c-3.89,58.44-35.91,142.09-35.91,142.09
				c-58.2,1.19-155.73-47.5-157.23-48.25c43.97,14.67,90.22,22.56,136.57,23.22C370.057,343.575,390.527,291.125,393.157,241.335z"
				/>
			<path style="fill:#EAE6D6;" d="M393.157,262.185c0.5-7.44,0.54-14.46,0-20.85"/>
			<path style="fill:#EAE6D6;" d="M200.017,356.025c-0.01-0.01-0.02-0.01-0.02-0.01"/>
		</g>
		<g>
			<path style="fill:#74648E;" d="M375.774,122.648c0.853,0.026,1.533,0.767,1.507,1.644c-0.013,0.442-0.2,0.83-0.488,1.116
				c-0.295,0.278-0.683,0.447-1.113,0.434l-121.306-3.644c-0.853-0.026-1.533-0.767-1.507-1.644c0.013-0.442,0.2-0.83,0.488-1.116
				c0.295-0.278,0.691-0.446,1.113-0.434L375.774,122.648z"/>
			<path style="fill:#74648E;" d="M358.88,128.346c0.829,0.025,1.485,0.741,1.46,1.593c-0.025,0.844-0.723,1.519-1.552,1.494
				l-104.643-3.143c-0.829-0.025-1.485-0.741-1.46-1.585c0.025-0.852,0.723-1.527,1.552-1.503L358.88,128.346z"/>
			<polygon style="fill:#EAE6D6;" points="248.805,111.228 246.582,135.374 221.911,134.633 224.134,110.487 			"/>
		</g>
		<g>
			<path style="fill:#74648E;" d="M366.824,169.19c0.829,0.025,1.485,0.741,1.46,1.593s-0.723,1.527-1.552,1.503l-116.142-3.489
				c-0.829-0.025-1.485-0.741-1.46-1.593s0.723-1.527,1.552-1.503L366.824,169.19z"/>
			<path style="fill:#74648E;" d="M355.526,162.056c0.829,0.025,1.485,0.741,1.46,1.593c-0.025,0.844-0.723,1.519-1.552,1.494
				L250.792,162c-0.829-0.025-1.485-0.741-1.46-1.585c0.025-0.852,0.723-1.527,1.552-1.503L355.526,162.056z"/>
			<path style="fill:#74648E;" d="M320.346,173.614c0.821,0.025,1.477,0.741,1.452,1.593s-0.723,1.527-1.544,1.503l-70.729-2.125
				c-0.829-0.025-1.477-0.741-1.452-1.593c0.025-0.852,0.715-1.528,1.544-1.503L320.346,173.614z"/>
			<polygon style="fill:#EAE6D6;" points="245.753,151.971 243.53,176.126 218.859,175.385 221.082,151.23 			"/>
			<g>
				<path style="fill:#18263D;" d="M232.902,168.249c-0.404-0.012-0.805-0.167-1.128-0.468l-7.131-6.664
					c-0.717-0.67-0.769-1.811-0.116-2.548s1.764-0.793,2.48-0.123l5.837,5.455l12.835-14.397c0.655-0.735,1.765-0.787,2.48-0.113
					c0.715,0.673,0.763,1.814,0.107,2.549l-14.017,15.723C233.89,168.066,233.394,168.263,232.902,168.249z"/>
			</g>
		</g>
		<g>
			<path style="fill:#74648E;" d="M365.121,211.169c0.828,0.047,1.463,0.78,1.413,1.631c-0.049,0.842-0.767,1.499-1.595,1.452
				l-116.002-6.574c-0.828-0.047-1.463-0.781-1.414-1.623c0.05-0.851,0.767-1.508,1.595-1.461L365.121,211.169z"/>
			<path style="fill:#74648E;" d="M354.035,203.729c0.828,0.047,1.463,0.781,1.413,1.631c-0.05,0.851-0.767,1.508-1.595,1.461
				l-104.517-5.923c-0.828-0.047-1.463-0.78-1.413-1.631c0.05-0.851,0.767-1.508,1.595-1.461L354.035,203.729z"/>
			<path style="fill:#74648E;" d="M318.531,214.356c0.82,0.046,1.455,0.78,1.405,1.631c-0.049,0.842-0.767,1.499-1.587,1.453
				l-70.644-4.004c-0.828-0.047-1.455-0.78-1.406-1.623c0.05-0.851,0.759-1.508,1.587-1.461L318.531,214.356z"/>
			<polygon style="fill:#EAE6D6;" points="245.174,194.409 242.251,218.485 217.61,217.089 220.533,193.012 			"/>
			<g>
				<path style="fill:#18263D;" d="M232.322,209.931c-0.403-0.023-0.8-0.188-1.114-0.498l-6.935-6.85
					c-0.697-0.688-0.716-1.831-0.042-2.55c0.674-0.72,1.786-0.745,2.483-0.057l5.677,5.608l13.248-14.049
					c0.676-0.718,1.788-0.74,2.483-0.047c0.695,0.691,0.71,1.833,0.033,2.551l-14.469,15.344
					C233.316,209.775,232.814,209.959,232.322,209.931z"/>
			</g>
		</g>
		<g>
			<path style="fill:#74648E;" d="M363.949,255.195c0.85,0.067,1.491,0.84,1.42,1.714c-0.036,0.441-0.243,0.819-0.545,1.091
				c-0.309,0.263-0.705,0.413-1.134,0.38l-120.976-9.488c-0.85-0.067-1.491-0.84-1.42-1.714c0.036-0.441,0.243-0.819,0.545-1.092
				c0.309-0.263,0.713-0.413,1.135-0.38L363.949,255.195z"/>
			<path style="fill:#74648E;" d="M346.782,260.071c0.826,0.065,1.446,0.812,1.376,1.661c-0.068,0.841-0.8,1.482-1.627,1.418
				l-104.359-8.185c-0.826-0.065-1.446-0.812-1.377-1.653c0.069-0.849,0.801-1.491,1.627-1.426L346.782,260.071z"/>
			<polygon style="fill:#EAE6D6;" points="238.414,238.93 234.95,262.946 210.347,261.016 213.811,237.001 			"/>
			<g>
				<path style="fill:#18263D;" d="M224.399,253.284c-0.403-0.032-0.796-0.206-1.102-0.522l-6.779-6.999
					c-0.682-0.703-0.675-1.846,0.015-2.551c0.69-0.705,1.803-0.706,2.484-0.003l5.55,5.729l13.56-13.759
					c0.692-0.703,1.804-0.701,2.483,0.007c0.679,0.706,0.668,1.848-0.024,2.551l-14.81,15.027
					C225.396,253.149,224.891,253.322,224.399,253.284z"/>
			</g>
		</g>
		<g>
			<path style="fill:#74648E;" d="M349.895,308.77c0.817,0.156,1.347,0.899,1.179,1.652c-0.169,0.753-0.974,1.242-1.792,1.086
				l-114.521-21.836c-0.817-0.156-1.347-0.899-1.179-1.652c0.169-0.753,0.974-1.242,1.792-1.086L349.895,308.77z"/>
			<path style="fill:#74648E;" d="M339.901,300.604c0.817,0.156,1.347,0.899,1.179,1.652c-0.167,0.746-0.973,1.234-1.79,1.079
				L236.107,283.66c-0.817-0.156-1.347-0.899-1.18-1.645c0.169-0.753,0.974-1.242,1.792-1.086L339.901,300.604z"/>
			<path style="fill:#74648E;" d="M303.084,305.207c0.809,0.154,1.339,0.897,1.171,1.651s-0.974,1.242-1.784,1.087l-69.742-13.298
				c-0.817-0.156-1.339-0.897-1.171-1.651c0.169-0.753,0.966-1.243,1.784-1.087L303.084,305.207z"/>
			<polygon style="fill:#EAE6D6;" points="233.35,275.152 227.075,296.264 202.748,291.626 209.024,270.513 			"/>
			<g>
				<path style="fill:#18263D;" d="M217.5,289.196c-0.398-0.076-0.77-0.278-1.039-0.598l-5.943-7.076
					c-0.598-0.711-0.457-1.734,0.314-2.285c0.771-0.55,1.882-0.42,2.479,0.291l4.865,5.792l15.148-10.731
					c0.773-0.548,1.882-0.415,2.477,0.299c0.595,0.713,0.45,1.736-0.324,2.284l-16.544,11.72
					C218.51,289.193,217.985,289.289,217.5,289.196z"/>
			</g>
		</g>
		<g>
			<path style="fill:#74648E;" d="M345.541,338.069c0.84,0.168,1.387,0.935,1.209,1.716c-0.089,0.391-0.341,0.703-0.675,0.909
				c-0.34,0.197-0.753,0.281-1.177,0.196l-119.471-23.866c-0.848-0.169-1.385-0.942-1.209-1.716c0.089-0.391,0.342-0.71,0.675-0.909
				s0.753-0.281,1.177-0.196L345.541,338.069z"/>
			<path style="fill:#74648E;" d="M337.651,349.135c0.808,0.161,1.335,0.909,1.165,1.654c-0.171,0.752-0.979,1.234-1.787,1.072
				L222.637,329.01c-0.816-0.163-1.335-0.909-1.164-1.662c0.17-0.745,0.969-1.228,1.785-1.065L337.651,349.135z"/>
			<path style="fill:#74648E;" d="M327.695,340.87c0.816,0.163,1.343,0.911,1.172,1.663c-0.171,0.752-0.979,1.234-1.795,1.07
				l-103.068-20.589c-0.816-0.163-1.335-0.909-1.164-1.662c0.171-0.752,0.971-1.235,1.787-1.072L327.695,340.87z"/>
			<path style="fill:#74648E;" d="M290.87,345.151c0.816,0.163,1.343,0.911,1.172,1.663s-0.979,1.234-1.795,1.07l-69.651-13.914
				c-0.816-0.163-1.343-0.911-1.172-1.663c0.171-0.752,0.979-1.234,1.795-1.07L290.87,345.151z"/>
			<path style="fill:#EAE6D6;" d="M218.867,314.145l-5.54,18.37l-21.03-4.2c0.63-4.15,0.91-8.36,0.83-12.56
				c-0.01-0.51-0.02-1.02-0.04-1.53l2.3-7.63l22.09,4.42l-13.71,9.57l-4.84-5.84c-0.59-0.71-1.7-0.85-2.48-0.31
				c-0.45,0.32-0.68,0.8-0.68,1.29c0,0.35,0.11,0.69,0.36,0.99l5.91,7.14c0.27,0.32,0.64,0.52,1.04,0.6
				c0.49,0.1,1.01,0.01,1.44-0.29L218.867,314.145z"/>
			<path style="fill:#FFF6D2;" d="M219.677,311.455l-0.81,2.69l-14.35,10.02c-0.43,0.3-0.95,0.39-1.44,0.29
				c-0.4-0.08-0.77-0.28-1.04-0.6l-5.91-7.14c-0.25-0.3-0.36-0.64-0.36-0.99c0-0.49,0.23-0.97,0.68-1.29
				c0.78-0.54,1.89-0.4,2.48,0.31l4.84,5.84l13.71-9.57L219.677,311.455z"/>
			<g>
				<path style="fill:#18263D;" d="M221.097,312.585l-2.23,1.56l-14.35,10.02c-0.43,0.3-0.95,0.39-1.44,0.29
					c-0.4-0.08-0.77-0.28-1.04-0.6l-5.91-7.14c-0.25-0.3-0.36-0.64-0.36-0.99c0-0.49,0.23-0.97,0.68-1.29
					c0.78-0.54,1.89-0.4,2.48,0.31l4.84,5.84l13.71-9.57l1.47-1.03c0.78-0.54,1.89-0.4,2.48,0.32
					C222.017,311.025,221.867,312.045,221.097,312.585z"/>
			</g>
		</g>
	</g>
	<g>
		<ellipse style="opacity:0.08;fill:#171C35;" cx="176.868" cy="441.942" rx="90.117" ry="17.305"/>
		<g>
			<g>
				<g>
					<path style="fill:#F2CDA5;" d="M133.382,139.704l-0.04,0.23c0.04,2.04,0.08,4.07,0.11,6.11c-1.81,0.36-3.64,0.61-5.48,0.75
						l-0.01-0.09c-1.72-2.61-2.92-5.56-3.52-8.63c-0.1-0.49-0.12-1.12,0.33-1.35c0.29-0.15,0.64-0.04,0.94,0.07
						c2.73,0.98,5.46,1.96,8.19,2.94l-0.01,0.06C133.722,139.764,133.552,139.734,133.382,139.704z"/>
					<path style="fill:#FFE5C5;" d="M118.992,137.554c0.66-9.86,0.37-19.78-0.88-29.58l0.17-0.49c3.31-0.91,6.65-1.84,9.65-3.5
						c3.01-1.66,5.69-4.13,6.92-7.34c0.04-0.12,0.09-0.23,0.13-0.35l0.11,0.04c5.42,4.99,9.64,11.26,12.24,18.15
						c-1.58,0.94-3.15,1.86-4.74,2.8c1.26,4.23,2.14,8.56,2.63,12.95c0.29,2.61,0.36,5.52-1.3,7.57c-1.2,1.48-3.13,2.22-5.03,2.38
						c-1.67,0.15-3.34-0.1-5-0.39l0.01-0.06c-2.73-0.98-5.46-1.96-8.19-2.94c-0.3-0.11-0.65-0.22-0.94-0.07
						c-0.45,0.23-0.43,0.86-0.33,1.35c0.6,3.07,1.8,6.02,3.52,8.63l0.01,0.09c-6.8,0.54-13.72-0.31-20.19-2.49
						c0.01-0.96,0.01-1.92,0.02-2.88c0-0.94,0.01-1.89,0.02-2.83v-0.07c3.71,0.21,7.45-0.12,11.05-0.98L118.992,137.554z"/>
				</g>
				<g>
					<path style="fill:#47251C;" d="M102.662,134.464c1.13,1.15,3.03,1.55,4.59,1.02c1.94-0.65,3.34-2.42,4.02-4.35
						c0.68-1.93,0.73-4.01,0.7-6.06c-0.11-6.41-1.03-12.8-2.72-18.99c4.68-1.99,8.87-5.1,12.14-9c1.76-2.09,3.28-4.48,3.81-7.16
						c0.53-2.68-0.07-5.7-2.04-7.59c-1.61-1.54-4.19-2.06-6.18-1.22c4.28-1.78,8.08-4.72,10.88-8.41c0.79-1.04,1.74-2.27,3.04-2.17
						c1.36,0.09,2.13,1.56,2.53,2.86c1.33,4.44,1.16,9.3-0.39,13.66l0.08,0.03c2.38,2.29,2.92,6.07,1.86,9.21
						c-0.04,0.12-0.09,0.23-0.13,0.35c-1.23,3.21-3.91,5.68-6.92,7.34c-3,1.66-6.34,2.59-9.65,3.5l-0.17,0.49
						c1.25,9.8,1.54,19.72,0.88,29.58l-0.12-0.01c-3.6,0.86-7.34,1.19-11.05,0.98c-0.14,0-0.28-0.01-0.42-0.02l-0.11,0.14
						c-1.66-1.27-3.24-2.62-4.75-4.05L102.662,134.464z"/>
					<path style="fill:#4C2821;" d="M102.662,134.464l-0.12,0.13c-5.46-5.18-9.9-11.41-12.99-18.26c-1.96-4.34-3.39-9.14-2.56-13.83
						c0.8-4.53,4.22-8.83,8.71-9.53c1.37-3.82,5.08-6.46,8.91-7.96c4.03-1.58,8.38-2.24,12.37-3.9c1.99-0.84,4.57-0.32,6.18,1.22
						c1.97,1.89,2.57,4.91,2.04,7.59c-0.53,2.68-2.05,5.07-3.81,7.16c-3.27,3.9-7.46,7.01-12.14,9c1.69,6.19,2.61,12.58,2.72,18.99
						c0.03,2.05-0.02,4.13-0.7,6.06c-0.68,1.93-2.08,3.7-4.02,4.35C105.692,136.014,103.792,135.614,102.662,134.464z"/>
				</g>
				<g>
					<path style="fill:#FFFFFF;" d="M133.452,146.044c0.21-0.03,0.41-0.07,0.61-0.12c1.94,2.47,3.6,5.14,4.97,7.96
						c-0.26,0.08-0.53,0.16-0.79,0.23c-2.63,0.73-5.31,1.24-8.02,1.53c-8.54,0.91-17.31-0.41-25.17-3.86
						c-0.21-0.09-0.41-0.18-0.61-0.27l0.11-0.24c-0.02-0.27-0.04-0.54-0.05-0.81c-0.08-2.36,0.23-4.75,0.89-7.02v-0.01
						c0.79,0.31,1.58,0.6,2.39,0.87c6.47,2.18,13.39,3.03,20.19,2.49C129.812,146.654,131.642,146.404,133.452,146.044z"/>
					<path style="fill:#FFFFFF;" d="M105.282,143.384c0.77-0.59,1.7-1.32,2.52-1.96c-0.01,0.96-0.01,1.92-0.02,2.88
						c-0.81-0.27-1.6-0.56-2.39-0.87C105.352,143.424,105.322,143.404,105.282,143.384z"/>
					<path style="fill:#FFFFFF;" d="M232.692,212.944c0.33,1.27,0.17,2.68-0.06,4c-0.7,3.97-1.93,7.84-3.65,11.49
						c-0.05,0.11-0.1,0.21-0.15,0.32c-1.54-0.64-3.07-1.27-4.61-1.92c3.31-4.6,4.62-10.63,3.48-16.18l0.4-0.09
						c1.36-1,3.45-0.08,4.22,1.42C232.482,212.294,232.602,212.614,232.692,212.944z"/>
					<path style="fill:#173656;" d="M98.112,189.094c1.19,11.38,2.38,22.75,3.57,34.12c-2.24-3.18-4.48-6.38-6.72-9.56
						c-1.78-2.54-3.62-5.2-4.11-8.26c-0.59-3.65,0.81-7.33,2.56-10.58c1.49-2.75,3.25-5.37,4.44-8.24
						C97.932,187.414,98.022,188.254,98.112,189.094z"/>
					<path style="fill:#173656;" d="M224.222,226.834c-0.44,0.63-0.92,1.22-1.44,1.79c-1.79-0.33-3.57-0.7-5.35-1.09
						c-3.23-0.71-6.44-1.49-9.63-2.35c-19.18-5.15-37.63-12.98-54.68-23.16c-10.03-5.98-19.57-12.78-28.48-20.33
						c0.03-0.34,0.09-0.67,0.17-1c-2.16-4.21-2.79-9.19-1.72-13.79c1.02-4.42,3.59-8.44,7.13-11.26c2.71-0.29,5.39-0.8,8.02-1.53
						c20.19,19.79,43.97,35.9,69.8,47.4c2.51,1.12,5.04,2.2,7.59,3.22c3.74,1.52,7.51,2.93,11.32,4.25l0.29-0.09
						c0.19,0.58,0.34,1.17,0.46,1.76C228.842,216.204,227.532,222.234,224.222,226.834z"/>
					<path style="fill:#183C60;" d="M83.302,190.314c7.01-13.28,14.03-26.57,21.04-39.85h0.16c0.01,0.27,0.03,0.54,0.05,0.81
						l-0.11,0.24c0.2,0.09,0.4,0.18,0.61,0.27c-4.43,4.6-6.73,10.97-7.51,17.33c-0.72,5.79-0.27,11.65,0.31,17.46
						c-1.19,2.87-2.95,5.49-4.44,8.24c-1.75,3.25-3.15,6.93-2.56,10.58c0.49,3.06,2.33,5.72,4.11,8.26
						c2.24,3.18,4.48,6.38,6.72,9.56c0.81,7.68,1.61,15.37,2.42,23.05l-0.35,0.04c-5.7-6.86-11.4-13.72-17.1-20.59
						c-3.98-4.78-8.12-9.93-8.93-16.1C76.842,202.864,80.122,196.334,83.302,190.314z"/>
					<path style="fill:#183C60;" d="M149.732,252.874c-0.09-0.04-0.18-0.08-0.27-0.12c0.17-6.96,0.25-13.95-0.81-20.83
						c-1.13-7.39-3.66-14.72-8.38-20.53c-3.72-4.56-8.69-8.07-11.95-12.97c-3.24-4.87-4.57-10.96-3.68-16.73
						c8.91,7.55,18.45,14.35,28.48,20.33c7.72,18.73,12,38.87,12.58,59.12l-0.03,0.05
						C160.512,258.154,155.192,255.374,149.732,252.874z"/>
					<path style="fill:#1D426D;" d="M104.412,249.254c-0.1-1-0.21-1.99-0.31-2.99c-0.81-7.68-1.61-15.37-2.42-23.05
						c-1.19-11.37-2.38-22.74-3.57-34.12c-0.09-0.84-0.18-1.68-0.26-2.52c-0.58-5.81-1.03-11.67-0.31-17.46
						c0.78-6.36,3.08-12.73,7.51-17.33c7.86,3.45,16.63,4.77,25.17,3.86c-3.54,2.82-6.11,6.84-7.13,11.26
						c-1.07,4.6-0.44,9.58,1.72,13.79c-0.08,0.33-0.14,0.66-0.17,1c-0.89,5.77,0.44,11.86,3.68,16.73
						c3.26,4.9,8.23,8.41,11.95,12.97c4.72,5.81,7.25,13.14,8.38,20.53c1.06,6.88,0.98,13.87,0.81,20.83
						c-4.18-1.9-8.43-3.65-12.74-5.22c-5.37-1.95-10.92-3.66-16.64-3.77c-5.56-0.11-11.33,1.46-15.4,5.23
						C104.592,249.074,104.502,249.164,104.412,249.254z"/>
					<path style="fill:#FFE5C5;" d="M243.342,208.794c1.64,0.3,2.2,2.33,2.43,3.98c0.44,3.22,0.88,6.44,1.31,9.65
						c0.38,2.73,0.57,5.96-1.52,7.76c-1.08,0.92-2.49,1.21-3.94,1.22l0.02-22.36C242.192,208.834,242.772,208.694,243.342,208.794z"
						/>
					<path style="fill:#FFE5C5;" d="M239.662,231.284c-2.3-0.27-4.58-0.74-6.79-1.43c-1.32-0.39-2.62-0.87-3.89-1.42
						c1.72-3.65,2.95-7.52,3.65-11.49c0.23-1.32,0.39-2.73,0.06-4c2.79-1.21,5.58-2.43,8.37-3.65c0.19-0.09,0.38-0.17,0.58-0.25
						l-0.02,22.36C240.962,231.414,240.302,231.354,239.662,231.284z"/>
				</g>
				<g>
					<path style="fill:#1B203F;" d="M120.502,266.944c-5.86-2.45-11.37-5.76-16.31-9.77c0.08-2.72,0.23-5.45,0.49-8.18
						c4.07-3.77,9.84-5.34,15.4-5.23c5.72,0.11,11.27,1.82,16.64,3.77c4.31,1.57,8.56,3.32,12.74,5.22
						c0.09,0.04,0.18,0.08,0.27,0.12c11,58.89,10.95,119.83-0.17,178.7c-6.78,0.6-13.56,1.2-20.34,1.8
						c-0.45,0.04-0.89,0.08-1.34,0.12c-0.06-0.71-0.1-1.42-0.13-2.12c-1.32-25.23,6.75-50.3,6.56-75.64
						C134.082,325.734,122.312,296.874,120.502,266.944z"/>
					<path style="fill:#171C35;" d="M153.522,431.224c-1.32,0.12-2.64,0.24-3.96,0.35c11.12-58.87,11.17-119.81,0.17-178.7
						c5.46,2.5,10.78,5.28,15.94,8.32c0.15,0.09,0.31,0.18,0.46,0.27l0.18-0.02c6.89,56.23,4.97,113.53-5.68,169.16
						C158.262,430.814,155.892,431.024,153.522,431.224z"/>
					<path style="fill:#141733;" d="M127.222,431.404c-8.03,0.11-16.07-0.67-23.93-2.31c-1.04-0.21-2.08-0.44-3.11-0.69h-0.1
						c0.9-27.2,11.01-53.45,12.12-80.64c1.23-30.32-8.77-60.44-8.01-90.59c4.94,4.01,10.45,7.32,16.31,9.77
						c1.81,29.93,13.58,58.79,13.81,88.79c0.19,25.34-7.88,50.41-6.56,75.64L127.222,431.404z"/>
					<path style="fill:#323338;" d="M127.752,431.374c0.03,0.7,0.07,1.41,0.13,2.12c0.45-0.04,0.89-0.08,1.34-0.12
						c-0.36,4.84-0.07,9.73,0.87,14.5c-7.52,0.09-15.04,0.18-22.56,0.27c-1.44,0.01-3.12-0.08-3.96-1.26
						c-0.55-0.78-0.56-1.8-0.54-2.76c0.09-5,0.17-10.02,0.26-15.03c7.86,1.64,15.9,2.42,23.93,2.31L127.752,431.374z"/>
					<path style="fill:#1E2130;" d="M149.562,431.574c1.32-0.11,2.64-0.23,3.96-0.35c5.43,3.55,11.98,5.37,18.48,5.13
						c3.07-0.11,6.21-0.67,9.19,0.13c2.97,0.79,5.75,3.55,5.21,6.58c-0.35,2.04-2.12,3.6-4.06,4.32c-1.95,0.71-4.07,0.72-6.14,0.72
						c-15.33,0.03-30.67,0.06-46.01,0.09c-0.01,0.01-0.03,0.02-0.04,0.03c-0.02-0.12-0.05-0.23-0.06-0.35
						c-0.94-4.77-1.23-9.66-0.87-14.5C136.002,432.774,142.782,432.174,149.562,431.574z"/>
				</g>
			</g>
			<g>
				<path style="fill:#F4D5A4;" d="M216.712,438.544l-10.88-16.7l0.02-2.21h0.02c0-1.2,0.11-2.39,0.47-3.53
					c0.59-1.87,2.04-3.61,3.98-3.95c2.17-0.39,4.34,1.09,5.44,3c1.11,1.91,1.4,4.17,1.66,6.36c0.36-3.38,0.88-7.08,3.4-9.37
					c0.87-0.79,1.97-1.36,3.14-1.41c2.27-0.1,4.22,1.83,4.93,3.98c0.15,0.45,0.25,0.9,0.33,1.36l-0.11,5.39
					c1.18-3.37,2.79-6.6,4.79-9.56c0.66-0.99,4.65-0.68,5.12,0.37c1.2,2.7,2.01,5.57,2.4,8.5v3.56l-8.26,10.16
					C227.462,433.694,221.492,435.154,216.712,438.544z"/>
				<path style="fill:#1E2130;" d="M216.712,438.544c4.78-3.39,10.75-4.85,16.45-4.05l-10.59,13.03L216.712,438.544z"/>
				<path style="fill:#FFB8B8;" d="M241.672,177.154c-20.74,14.96-33.39,0-33.39,0C223.242,161.374,241.672,177.154,241.672,177.154
					z"/>
				<path style="fill:#FF8D8D;" d="M208.282,177.154c0,0,12.65,14.96,33.39,0l-0.03,27.58h-26.01c-2.55-1.02-5.08-2.1-7.59-3.22
					L208.282,177.154z"/>
				<path style="fill:#F4D760;" d="M222.782,228.624c0.52-0.57,1-1.16,1.44-1.79c1.54,0.65,3.07,1.28,4.61,1.92
					c0.05-0.11,0.1-0.21,0.15-0.32c1.27,0.55,2.57,1.03,3.89,1.42l-3.65,186.22c-0.08-0.46-0.18-0.91-0.33-1.36
					c-0.71-2.15-2.66-4.08-4.93-3.98c-1.17,0.05-2.27,0.62-3.14,1.41c-2.52,2.29-3.04,5.99-3.4,9.37l0.01-193.98
					C219.212,227.924,220.992,228.294,222.782,228.624z"/>
				<path style="fill:#FFE780;" d="M241.622,231.404l-0.2,189.37c-0.39-2.93-1.2-5.8-2.4-8.5c-0.47-1.05-4.46-1.36-5.12-0.37
					c-2,2.96-3.61,6.19-4.79,9.56c0.2-1.79,0.4-3.63,0.11-5.39l3.65-186.22c2.21,0.69,4.49,1.16,6.79,1.43
					C240.302,231.354,240.962,231.414,241.622,231.404z"/>
				<path style="fill:#FFE780;" d="M217.432,227.534l-0.01,193.98c-0.26-2.19-0.55-4.45-1.66-6.36c-1.1-1.91-3.27-3.39-5.44-3
					c-1.94,0.34-3.39,2.08-3.98,3.95c-0.36,1.14-0.47,2.33-0.47,3.53h-0.02l1.95-194.45
					C210.992,226.044,214.202,226.824,217.432,227.534z"/>
				<path style="fill:#A1ACAD;" d="M232.322,211.984c-0.77-1.5-2.86-2.42-4.22-1.42l-0.4,0.09c-0.12-0.59-0.27-1.18-0.46-1.76
					l-0.29,0.09c-3.81-1.32-7.58-2.73-11.32-4.25h26.01v4.31c-0.2,0.08-0.39,0.16-0.58,0.25c-2.79,1.22-5.58,2.44-8.37,3.65
					C232.602,212.614,232.482,212.294,232.322,211.984z"/>
			</g>
		</g>
	</g>
</g>
<g id="DESIGNED_BY_FREEPIK">
	<g>
		<g id="XMLID_58_">
			<g id="XMLID_82_">
				<path id="XMLID_98_" style="fill:#112129;" d="M260.104,471.331c-0.432,0.443-0.803,0.931-1.108,1.453l-0.465-0.241
					c-0.067-0.298-0.349-0.503-0.659-0.466c-0.331,0.039-0.568,0.339-0.529,0.67c0.039,0.331,0.339,0.568,0.67,0.529
					c0.066-0.008,0.127-0.026,0.184-0.052l0.451,0.234c-0.251,0.554-0.433,1.139-0.539,1.744l0.746,0.132
					c0.23-1.306,0.85-2.507,1.792-3.473L260.104,471.331z"/>
				<path id="XMLID_97_" style="fill:#112129;" d="M265.592,469.029c-0.171,0-0.341,0.006-0.51,0.017l-0.074-0.626
					c0.188-0.149,0.296-0.389,0.266-0.645c-0.046-0.393-0.402-0.674-0.795-0.628c-0.393,0.046-0.674,0.402-0.628,0.795
					c0.03,0.254,0.189,0.461,0.404,0.564l0.074,0.624c-0.714,0.116-1.403,0.332-2.06,0.646l0.327,0.684
					c0.934-0.447,1.942-0.673,2.995-0.673c0.496,0,0.993,0.053,1.475,0.158l0.161-0.741
					C266.692,469.087,266.142,469.029,265.592,469.029z"/>
				<path id="XMLID_96_" style="fill:#112129;" d="M272.194,471.576c0.331-0.04,0.566-0.341,0.526-0.672
					c-0.04-0.331-0.341-0.566-0.672-0.526c-0.309,0.038-0.535,0.304-0.53,0.609l-0.416,0.363c-0.418-0.43-0.889-0.813-1.408-1.139
					l-0.404,0.641c1.134,0.715,2.021,1.726,2.563,2.925l0.69-0.313c-0.251-0.554-0.568-1.072-0.942-1.545l0.402-0.351
					C272.065,471.581,272.129,471.584,272.194,471.576z"/>
				<path id="XMLID_95_" style="fill:#112129;" d="M265.044,479.237c-0.386,0.023-0.775,0.035-1.157,0.035
					c-0.88,0-1.733-0.061-2.478-0.179c-0.39-0.062-0.846-0.155-1.27-0.292c1.046,1.861,3.069,3.125,5.388,3.125
					c2.855,0,5.262-1.916,5.95-4.504c-0.682,0.449-1.505,0.825-2.459,1.123C267.839,478.912,266.463,479.152,265.044,479.237z"/>
				<path id="XMLID_88_" style="fill:#112129;" d="M265.592,470.545c-3.352,0-6.08,2.666-6.08,5.943
					c0,0.426,0.046,0.849,0.137,1.261c0.673,0.483,2.706,0.89,5.348,0.731c2.879-0.173,5.297-0.957,6.672-2.159
					c-0.006-0.195-0.021-0.39-0.045-0.582C271.244,472.778,268.65,470.545,265.592,470.545z M263.432,477.06
					c-1.02,0-1.85-0.83-1.85-1.85c0-1.02,0.83-1.85,1.85-1.85c1.02,0,1.85,0.83,1.85,1.85
					C265.282,476.23,264.452,477.06,263.432,477.06z M268.17,476.151c-0.75,0-1.36-0.61-1.36-1.36c0-0.75,0.61-1.361,1.36-1.361
					c0.75,0,1.361,0.61,1.361,1.361C269.53,475.541,268.92,476.151,268.17,476.151z"/>
			</g>
			<path id="XMLID_80_" style="fill:#112129;" d="M281.595,472.412c-0.295-0.116-0.805-0.309-1.382-0.237
				c-0.551,0.069-0.844,0.341-0.844,1.007v0.866h2.228v1.717h-2.228v5.455h-1.932v-5.455h-1.34v-1.717h1.34v-0.888
				c0-1.68,0.896-2.783,2.568-2.783c0.643,0,1.157,0.122,1.59,0.308L281.595,472.412z"/>
			<path id="XMLID_78_" style="fill:#112129;" d="M286.298,475.744c-0.177-0.03-0.358-0.046-0.526-0.046
				c-0.895,0-1.51,0.548-1.51,1.613v3.908h-1.932v-7.172h1.873v0.785c0.451-0.673,1.14-0.977,2.021-0.977
				c0.414,0,0.848,0.128,1.094,0.337L286.298,475.744z"/>
			<path id="XMLID_75_" style="fill:#112129;" d="M293.965,477.622c0,0.222-0.015,0.489-0.037,0.651h-5.085
				c0.207,1.036,0.933,1.488,1.843,1.488c0.622,0,1.295-0.252,1.813-0.688l1.133,1.243c-0.814,0.748-1.85,1.088-3.057,1.088
				c-2.198,0-3.723-1.495-3.723-3.753c0-2.258,1.48-3.797,3.627-3.797C292.544,473.855,293.958,475.387,293.965,477.622z
				 M288.851,476.956h3.175c-0.177-0.918-0.733-1.436-1.562-1.436C289.554,475.52,289.021,476.068,288.851,476.956z"/>
			<path id="XMLID_72_" style="fill:#112129;" d="M301.618,477.622c0,0.222-0.015,0.489-0.037,0.651h-5.085
				c0.207,1.036,0.932,1.488,1.843,1.488c0.622,0,1.295-0.252,1.814-0.688l1.132,1.243c-0.814,0.748-1.85,1.088-3.057,1.088
				c-2.198,0-3.723-1.495-3.723-3.753c0-2.258,1.48-3.797,3.627-3.797C300.197,473.855,301.611,475.387,301.618,477.622z
				 M296.504,476.956h3.175c-0.178-0.918-0.733-1.436-1.562-1.436C297.207,475.52,296.674,476.068,296.504,476.956z"/>
			<path id="XMLID_69_" style="fill:#112129;" d="M309.964,477.629c0,2.154-1.495,3.775-3.471,3.775
				c-0.962,0-1.643-0.378-2.109-0.933v3.708h-1.924v-10.133h1.887v0.792c0.466-0.585,1.155-0.984,2.139-0.984
				C308.469,473.855,309.964,475.476,309.964,477.629z M304.287,477.629c0,1.132,0.747,1.976,1.843,1.976
				c1.14,0,1.85-0.881,1.85-1.976c0-1.095-0.711-1.976-1.85-1.976C305.035,475.653,304.287,476.497,304.287,477.629z"/>
			<path id="XMLID_66_" style="fill:#112129;" d="M313.067,471.701c0,0.696-0.54,1.229-1.236,1.229
				c-0.696,0-1.229-0.533-1.229-1.229c0-0.696,0.533-1.243,1.229-1.243C312.527,470.457,313.067,471.005,313.067,471.701z
				 M312.809,481.219h-1.932v-7.172h1.932V481.219z"/>
			<path id="XMLID_64_" style="fill:#112129;" d="M316.032,476.601l2.702-2.554h2.368l-3.479,3.375l3.501,3.797h-2.376l-2.716-2.901
				v2.901H314.1v-10.658h1.932V476.601z"/>
		</g>
		<g>
			<path style="fill:#112129;" d="M184.412,481.154v-1.055c-0.527,0.718-1.391,1.23-2.387,1.23c-1.846,0-3.149-1.406-3.149-3.706
				c0-2.256,1.289-3.721,3.149-3.721c0.952,0,1.816,0.469,2.387,1.245v-3.765h1.099v9.77H184.412z M184.412,479.235v-3.208
				c-0.395-0.615-1.245-1.143-2.124-1.143c-1.421,0-2.27,1.172-2.27,2.739c0,1.567,0.85,2.724,2.27,2.724
				C183.168,480.349,184.017,479.851,184.412,479.235z"/>
			<path style="fill:#112129;" d="M186.932,477.609c0-2.051,1.465-3.706,3.486-3.706c2.139,0,3.398,1.67,3.398,3.794v0.279h-5.727
				c0.088,1.333,1.025,2.446,2.549,2.446c0.805,0,1.626-0.322,2.182-0.894l0.527,0.718c-0.703,0.703-1.655,1.084-2.812,1.084
				C188.44,481.33,186.932,479.821,186.932,477.609z M190.403,474.812c-1.509,0-2.256,1.274-2.314,2.358h4.643
				C192.718,476.115,192.015,474.812,190.403,474.812z"/>
			<path style="fill:#112129;" d="M194.607,480.217l0.571-0.791c0.469,0.542,1.362,1.011,2.329,1.011c1.084,0,1.67-0.513,1.67-1.216
				c0-1.714-4.38-0.659-4.38-3.281c0-1.098,0.952-2.036,2.636-2.036c1.201,0,2.051,0.454,2.622,1.025l-0.513,0.762
				c-0.424-0.513-1.201-0.894-2.109-0.894c-0.967,0-1.567,0.483-1.567,1.113c0,1.552,4.38,0.527,4.38,3.281
				c0,1.187-0.952,2.138-2.783,2.138C196.306,481.33,195.325,480.978,194.607,480.217z"/>
			<path style="fill:#112129;" d="M201.477,472.336c0-0.41,0.337-0.747,0.732-0.747c0.41,0,0.747,0.337,0.747,0.747
				c0,0.41-0.337,0.732-0.747,0.732C201.814,473.068,201.477,472.746,201.477,472.336z M201.667,481.154v-7.075h1.099v7.075H201.667
				z"/>
			<path style="fill:#112129;" d="M204.582,482.97l0.556-0.82c0.586,0.703,1.289,0.967,2.3,0.967c1.172,0,2.27-0.571,2.27-2.124
				v-1.011c-0.513,0.718-1.377,1.26-2.373,1.26c-1.845,0-3.149-1.377-3.149-3.662c0-2.27,1.289-3.676,3.149-3.676
				c0.952,0,1.802,0.469,2.373,1.245v-1.069h1.098v6.87c0,2.344-1.641,3.076-3.369,3.076
				C206.237,484.025,205.417,483.791,204.582,482.97z M209.709,479.118v-3.091c-0.381-0.615-1.23-1.143-2.109-1.143
				c-1.421,0-2.27,1.128-2.27,2.695c0,1.553,0.849,2.695,2.27,2.695C208.478,480.275,209.328,479.733,209.709,479.118z"/>
			<path style="fill:#112129;" d="M217.413,481.154v-4.629c0-1.245-0.63-1.641-1.582-1.641c-0.865,0-1.685,0.527-2.095,1.099v5.17
				h-1.099v-7.075h1.099v1.025c0.498-0.586,1.465-1.201,2.519-1.201c1.48,0,2.256,0.747,2.256,2.285v4.966H217.413z"/>
			<path style="fill:#112129;" d="M219.932,477.609c0-2.051,1.465-3.706,3.486-3.706c2.139,0,3.398,1.67,3.398,3.794v0.279h-5.727
				c0.088,1.333,1.025,2.446,2.549,2.446c0.806,0,1.626-0.322,2.183-0.894l0.527,0.718c-0.703,0.703-1.655,1.084-2.812,1.084
				C221.441,481.33,219.932,479.821,219.932,477.609z M223.404,474.812c-1.509,0-2.256,1.274-2.314,2.358h4.643
				C225.718,476.115,225.015,474.812,223.404,474.812z"/>
			<path style="fill:#112129;" d="M233.35,481.154v-1.055c-0.527,0.718-1.392,1.23-2.388,1.23c-1.846,0-3.149-1.406-3.149-3.706
				c0-2.256,1.289-3.721,3.149-3.721c0.952,0,1.817,0.469,2.388,1.245v-3.765h1.098v9.77H233.35z M233.35,479.235v-3.208
				c-0.396-0.615-1.245-1.143-2.124-1.143c-1.421,0-2.27,1.172-2.27,2.739c0,1.567,0.849,2.724,2.27,2.724
				C232.105,480.349,232.954,479.851,233.35,479.235z"/>
			<path style="fill:#112129;" d="M239.692,481.154v-9.77h1.098v3.765c0.572-0.776,1.421-1.245,2.388-1.245
				c1.845,0,3.149,1.465,3.149,3.721c0,2.299-1.304,3.706-3.149,3.706c-0.996,0-1.86-0.513-2.388-1.23v1.055H239.692z
				 M242.9,480.349c1.436,0,2.285-1.157,2.285-2.724c0-1.568-0.85-2.739-2.285-2.739c-0.864,0-1.728,0.527-2.109,1.143v3.208
				C241.171,479.851,242.036,480.349,242.9,480.349z"/>
			<path style="fill:#112129;" d="M247.528,482.927c0.161,0.073,0.425,0.117,0.601,0.117c0.483,0,0.805-0.161,1.055-0.747
				l0.469-1.069l-2.959-7.148h1.187l2.358,5.8l2.344-5.8h1.201l-3.545,8.51c-0.425,1.025-1.143,1.421-2.08,1.435
				c-0.234,0-0.601-0.044-0.806-0.103L247.528,482.927z"/>
		</g>
	</g>
</g>
</svg>
